<svg xmlns="http://www.w3.org/2000/svg" fill="none" stroke="#000" stroke-width="2" viewBox="0 0 347 347"><path d="M5 5h337v337H5z"/><circle cx="298" cy="40" r="16"/><path d="M24.296 25.428h213.498v180.1H24.296z" style="fill:#000;fill-opacity:1;stroke:#000;stroke-width:1.41009"/><path fill="none" d="M28.411 220.618h41.323v41.323H28.411z" style="fill:#000;fill-opacity:0;stroke:#000;stroke-width:1.5"/><path fill="none" d="M28.411 220.618h41.323v41.323H28.411zM71.234 220.618h41.323v41.323H71.234zM114.057 220.618h41.323v41.323h-41.323zM156.88 220.618h41.323v41.323H156.88zM199.703 220.618h41.323v41.323h-41.323zM28.411 263.441h41.323v41.323H28.411z" style="fill:#000;fill-opacity:0;stroke:#000;stroke-width:1.5"/><path fill="none" d="M28.411 263.441h41.323v41.323H28.411zM71.234 263.441h41.323v41.323H71.234zM114.057 263.441h41.323v41.323h-41.323zM156.88 263.441h41.323v41.323H156.88zM199.703 263.441h41.323v41.323h-41.323z" style="fill:#000;fill-opacity:0;stroke:#000;stroke-width:1.5"/><path stroke="none" d="M52.72 228.792v26.505h-3.719v-22.458l-3.773 2.315v-3.847L49 228.792z" aria-label="1" style="font-size:37.3333px;font-family:Bahnschrift;-inkscape-font-specification:Bahnschrift;fill:#000;stroke:none;stroke-width:1.5"/><path stroke="none" d="M84.413 254.73v-3.226l9.242-12.323q.803-1.057 1.24-2.187.456-1.13.456-2.133v-.036q0-1.586-.93-2.461-.93-.875-2.643-.875-1.604 0-2.625.966-1.003.948-1.222 2.698v.018h-3.846v-.018q.492-3.427 2.498-5.305 2.005-1.896 5.158-1.896 3.573 0 5.524 1.805 1.95 1.805 1.95 5.104v.018q0 1.404-.583 2.953-.583 1.532-1.622 2.935l-7.675 10.427h10.026v3.537z" aria-label="2" style="font-size:37.3333px;font-family:Bahnschrift;-inkscape-font-specification:Bahnschrift;fill:#000;stroke:none;stroke-width:1.5"/><path stroke="none" d="M135.256 255.004q-2.242 0-3.938-.802-1.677-.82-2.698-2.351-1.02-1.532-1.312-3.72h3.791q.256 1.714 1.35 2.517 1.093.783 2.807.783 1.84 0 2.862-.984 1.02-.984 1.02-2.77v-.803q0-1.987-.966-3.062-.966-1.094-2.734-1.094h-1.878v-3.537h1.878q1.568 0 2.406-.93.857-.929.857-2.624v-.82q0-1.568-.911-2.425-.894-.857-2.552-.857-1.404 0-2.388.802-.967.784-1.331 2.498h-3.774q.565-3.282 2.516-5.068 1.969-1.805 4.977-1.805 3.427 0 5.304 1.805 1.878 1.805 1.878 5.086v.437q0 1.987-1.076 3.464-1.075 1.458-3.044 2.15 2.17.457 3.354 2.134 1.203 1.659 1.203 4.229v.437q0 3.482-1.987 5.396-1.987 1.914-5.614 1.914z" aria-label="3" style="font-size:37.3333px;font-family:Bahnschrift;-inkscape-font-specification:Bahnschrift;fill:#000;stroke:none;stroke-width:1.5"/><path stroke="none" d="M169.36 250.666v-3.227l8.896-19.195h3.828l-8.677 18.976h12.997v3.446zm11.43 4.083v-15.604h3.627v15.604z" aria-label="4" style="font-size:37.3333px;font-family:Bahnschrift;-inkscape-font-specification:Bahnschrift;fill:#000;stroke:none;stroke-width:1.5"/><path stroke="none" d="M221.279 254.438q-3.026 0-4.977-1.732-1.932-1.75-2.424-4.921v-.019h3.719v.019q.2 1.458 1.166 2.278.967.802 2.516.802 1.786 0 2.753-1.185.984-1.203.984-3.372v-2.224q0-2.17-.984-3.354-.967-1.185-2.753-1.185-.966 0-1.86.547-.893.547-1.567 1.531h-3.39V227.66h13.507v3.536h-9.789v5.961q.693-.565 1.55-.875.856-.31 1.75-.31 3.463 0 5.359 2.133 1.896 2.114 1.896 5.979v2.224q0 3.883-1.95 6.016-1.951 2.114-5.506 2.114z" aria-label="5" style="font-size:37.3333px;font-family:Bahnschrift;-inkscape-font-specification:Bahnschrift;fill:#000;stroke:none;stroke-width:1.5"/><path stroke="none" d="M49.195 297.46q-3.518 0-5.45-2.097-1.933-2.096-1.933-5.906v-.018q0-1.714.474-3.628.474-1.932 1.367-3.719l5.76-11.411h4.011l-6.763 13.216.018-.656q.948-1.805 3.373-1.805 3.117 0 4.83 2.078 1.714 2.06 1.714 5.833v.019q0 3.846-1.932 5.979-1.932 2.114-5.469 2.114zm0-3.573q1.787 0 2.734-1.094.948-1.094.948-3.117v-.019q0-2.224-1.002-3.427-1.003-1.221-2.862-1.221-1.659 0-2.57 1.221-.912 1.222-.912 3.446v.018q0 2.023.948 3.117.966 1.076 2.716 1.076z" aria-label="6" style="font-size:37.3333px;font-family:Bahnschrift;-inkscape-font-specification:Bahnschrift;fill:#000;stroke:none;stroke-width:1.5"/><path stroke="none" d="M98.504 271.813v3.318l-6.854 23.187h-3.955l6.854-22.969h-6.745v3.81h-3.719v-7.346z" aria-label="7" style="font-size:37.3333px;font-family:Bahnschrift;-inkscape-font-specification:Bahnschrift;fill:#000;stroke:none;stroke-width:1.5"/><path stroke="none" d="M135.601 298.025q-2.424 0-4.229-.911-1.805-.911-2.807-2.57-1.003-1.66-1.003-3.883v-.438q0-1.987.984-3.737 1.003-1.75 2.662-2.643-1.386-.765-2.242-2.206-.857-1.458-.857-3.062v-.638q0-3.154 2.042-5.05 2.06-1.914 5.45-1.914t5.432 1.914q2.06 1.896 2.06 5.05v.638q0 1.64-.875 3.08-.856 1.44-2.278 2.188 1.677.893 2.68 2.643 1.02 1.75 1.02 3.737v.438q0 2.224-1.002 3.883-1.003 1.659-2.808 2.57-1.804.911-4.229.911zm0-3.572q1.95 0 3.136-1.112 1.203-1.13 1.203-2.954v-.255q0-1.84-1.203-2.953-1.185-1.13-3.136-1.13-1.95 0-3.154 1.13-1.184 1.112-1.184 2.971v.274q0 1.823 1.184 2.935 1.204 1.094 3.154 1.094zm0-11.977q1.695 0 2.735-1.075 1.039-1.076 1.039-2.844v-.255q0-1.696-1.04-2.717-1.039-1.039-2.734-1.039t-2.734 1.04q-1.04 1.02-1.04 2.734v.273q0 1.75 1.04 2.826 1.039 1.057 2.734 1.057z" aria-label="8" style="font-size:37.3333px;font-family:Bahnschrift;-inkscape-font-specification:Bahnschrift;fill:#000;stroke:none;stroke-width:1.5"/><path stroke="none" d="m174.705 297.186 6.672-13.161-.018.656q-.474.857-1.404 1.24-.93.382-2.151.382-2.862 0-4.612-2.114-1.75-2.133-1.75-5.651v-.019q0-3.864 1.932-5.979 1.95-2.133 5.47-2.133 3.517 0 5.45 2.151 1.932 2.133 1.932 6.053v.018q0 1.622-.474 3.518-.474 1.878-1.386 3.682l-5.65 11.357zm4.138-14.273q1.75 0 2.698-1.185.966-1.185.966-3.336v-.018q0-2.097-.966-3.245-.948-1.149-2.698-1.149-1.768 0-2.734 1.149-.948 1.148-.948 3.263v.018q0 2.151.948 3.336.966 1.167 2.734 1.167z" aria-label="9" style="font-size:37.3333px;font-family:Bahnschrift;-inkscape-font-specification:Bahnschrift;fill:#000;stroke:none;stroke-width:1.5"/><path stroke="none" d="M221.443 298.592q-3.792 0-5.687-2.024-1.878-2.042-1.878-5.505v-12.05q0-3.518 1.914-5.523t5.651-2.005q3.755 0 5.651 2.005 1.914 1.987 1.914 5.523v12.05q0 3.518-1.914 5.523-1.896 2.006-5.651 2.006zm0-3.537q2.042 0 2.935-1.057.911-1.076.911-2.935v-12.05q0-1.877-.911-2.934-.893-1.058-2.935-1.058t-2.953 1.058q-.893 1.057-.893 2.934v12.05q0 1.86.893 2.935.911 1.057 2.953 1.057z" aria-label="0" style="font-size:37.3333px;font-family:Bahnschrift;-inkscape-font-specification:Bahnschrift;fill:#000;stroke:none;stroke-width:1.5"/><path d="M242.263 221.319h76.448v39.653h-76.448zM242.263 262.444h76.448v39.653h-76.448z" style="fill:none;fill-opacity:1;stroke:#000;stroke-width:1.47167;stroke-opacity:1"/><path stroke="none" d="M245.427 246.182v-1.39h2.898q1.191 0 1.684-.456.5-.456.5-1.198v-.022q0-.795-.427-1.265-.419-.478-1.39-.478h-3.265v-1.353h3.266q.83 0 1.25-.39.426-.397.426-1.155 0-.801-.47-1.198-.471-.397-1.412-.397h-3.06v-1.39h3.332q1.58 0 2.353.787.772.787.772 2.11 0 .802-.47 1.47-.471.663-1.479.847.993.147 1.537.875.552.728.552 1.669v.022q0 1.309-.846 2.11-.846.802-2.294.802zm-.882 0V235.49h1.493v10.692zm13.884 0v-4.839q0-.75-.405-1.161-.397-.42-1.132-.42-.449 0-.89.14-.434.132-.78.39l-1.095-.75q.434-.522 1.14-.81.713-.293 1.58-.293 1.435 0 2.222.742.786.743.786 2.096v4.905zm-1.868.11q-1.405 0-2.11-.58-.7-.581-.7-1.78 0-1.14.64-1.699.648-.566 1.935-.566h2.169l.103 1.206h-2.265q-.581 0-.875.265-.294.257-.294.794 0 .58.39.86t1.169.28q.853 0 1.28-.184.426-.184.426-.574l.154 1.074q-.198.309-.493.507-.294.199-.676.294-.375.103-.853.103zm8.655 0q-1.573 0-2.441-.867-.86-.868-.86-2.45v-1.257q0-1.566.86-2.419.868-.86 2.441-.86.897 0 1.618.316.72.316 1.147.904l-1.08.971q-.317-.368-.75-.566-.435-.199-.913-.199-.867 0-1.345.486-.478.485-.478 1.367v1.258q0 .904.478 1.397t1.345.493q.478 0 .912-.213.434-.214.75-.603l1.081 1.044q-.426.573-1.154.89-.721.308-1.61.308zm4.971-1.228.096-1.78 3.927-4.735h1.765zm-.551 1.118V235.49h1.5v10.692zm5.081 0-2.662-4.405.963-1 3.332 5.405zm5.582.11q-1.015 0-1.846-.294-.824-.301-1.478-.897l.89-1.096q.625.471 1.228.706.61.236 1.206.236.89 0 1.33-.272.45-.28.45-.831 0-.427-.302-.603-.295-.177-.78-.228-.478-.06-1.03-.096-.463-.037-.919-.11-.456-.081-.83-.28-.376-.206-.604-.603-.22-.397-.22-1.066 0-1.213.743-1.816.742-.603 2.213-.603.897 0 1.67.242.771.243 1.448.743l-.905 1.096q-.573-.368-1.132-.552-.552-.184-1.081-.184-.765 0-1.147.265-.383.258-.383.78 0 .345.265.5.265.147.699.19.434.045.934.082.478.03.963.11.493.074.905.294.411.22.661.655.25.434.25 1.184 0 1.228-.801 1.838-.794.61-2.397.61zm5.11 2.993V238.55h1.5v10.736zm3.42-2.993q-.714 0-1.243-.338-.53-.345-.78-.97l.103-1.596q0 .492.177.838.176.346.507.53.339.183.817.183.742 0 1.147-.448.412-.456.412-1.28v-1.654q0-.839-.412-1.302-.405-.463-1.147-.463-.478 0-.817.176-.33.177-.507.515t-.177.824l-.154-1.471q.346-.67.905-1.03.558-.367 1.242-.367 1.228 0 1.898.816.669.809.669 2.294v1.662q0 1.464-.691 2.273-.692.808-1.95.808zm9.082-.11v-4.839q0-.75-.405-1.161-.397-.42-1.132-.42-.449 0-.89.14-.434.132-.78.39l-1.095-.75q.434-.522 1.14-.81.713-.293 1.58-.293 1.434 0 2.221.742.787.743.787 2.096v4.905zm-1.868.11q-1.405 0-2.11-.58-.7-.581-.7-1.78 0-1.14.64-1.699.648-.566 1.934-.566h2.17l.103 1.206h-2.265q-.581 0-.875.265-.294.257-.294.794 0 .58.39.86.389.28 1.169.28.853 0 1.28-.184.426-.184.426-.574l.154 1.074q-.199.309-.493.507-.294.199-.676.294-.375.103-.853.103zm8.655 0q-1.574 0-2.441-.867-.86-.868-.86-2.45v-1.257q0-1.566.86-2.419.867-.86 2.441-.86.897 0 1.618.316.72.316 1.147.904l-1.081.971q-.316-.368-.75-.566-.434-.199-.912-.199-.868 0-1.346.486-.478.485-.478 1.367v1.258q0 .904.478 1.397t1.346.493q.478 0 .912-.213.434-.214.75-.603l1.081 1.044q-.427.573-1.155.89-.72.308-1.61.308zm7.545 0q-1.596 0-2.471-.89t-.875-2.53v-.86q0-1.705.838-2.64.846-.933 2.375-.933 1.442 0 2.229 1.059.794 1.059.794 2.97v.5h-5.148v-1.205h3.721q-.066-.927-.485-1.45-.412-.521-1.11-.521-.846 0-1.317.559-.47.559-.47 1.58v.971q0 .949.5 1.456.507.508 1.419.508.456 0 .904-.184.449-.184.802-.515l.985.986q-.566.544-1.272.845-.706.294-1.42.294z" aria-label="Backspace" style="font-size:15.0603px;font-family:Bahnschrift;-inkscape-font-specification:Bahnschrift;fill:#000;stroke:none;stroke-width:.605102"/><path stroke="none" d="M252.814 289.832q-1.166 0-2.2-.22-1.023-.22-1.925-.66-.891-.44-1.672-1.1l1.397-1.716q.913.792 2.013 1.188 1.1.396 2.387.396 1.739 0 2.696-.65.957-.648.957-1.815v-.01q0-.914-.484-1.398-.484-.484-1.276-.715-.781-.242-1.716-.396-.903-.154-1.827-.363-.913-.209-1.683-.649-.77-.45-1.243-1.287-.462-.836-.462-2.233v-.011q0-2.233 1.485-3.454 1.485-1.233 4.192-1.233 1.287 0 2.519.418 1.232.407 2.398 1.255l-1.276 1.782q-.913-.682-1.826-1.012-.902-.33-1.815-.33-1.64 0-2.553.66-.902.649-.902 1.848v.01q0 .903.528 1.376.528.473 1.375.704.858.22 1.838.418.88.176 1.76.43.88.241 1.595.714.726.462 1.155 1.276.44.814.44 2.123v.022q0 2.212-1.54 3.422t-4.335 1.21zm15.732-.165v-11.42h2.233v11.42zm-4.643-11.42v6.942q0 1.2.606 1.86.616.649 1.727.649 1.11 0 1.705-.583.605-.594.605-1.662l.154 2.388q-.308.77-1.078 1.386-.77.605-2.013.605-1.893 0-2.927-1.21-1.023-1.221-1.023-3.433v-6.941zm15.402 11.585q-1.067 0-1.86-.506-.791-.517-1.165-1.452l.154-2.388q0 .738.264 1.255.264.517.759.792.506.275 1.22.275 1.112 0 1.717-.671.616-.682.616-1.915v-2.475q0-1.254-.616-1.947-.605-.693-1.716-.693-.715 0-1.221.264-.495.264-.76.77-.263.506-.263 1.232l-.231-2.2q.517-1.001 1.353-1.54.836-.55 1.859-.55 1.837 0 2.838 1.22 1.001 1.211 1.001 3.433v2.486q0 2.19-1.034 3.4t-2.915 1.21zm-5.116-.165V273.67h2.245v15.996zm25.897 0v-6.92q0-1.21-.627-1.87-.616-.66-1.76-.66-1.046 0-1.618.638-.572.638-.572 1.804l-.45-2.2q.55-1.144 1.43-1.76.88-.616 1.947-.616 1.859 0 2.87 1.22 1.024 1.211 1.024 3.433v6.93zm-13.642 0v-11.42h2.245v11.42zm6.821 0v-6.92q0-1.21-.594-1.87-.594-.66-1.683-.66-1.1 0-1.705.583-.594.583-.594 1.64l-.231-2.201q.528-1.034 1.375-1.595.858-.561 1.892-.561 1.804 0 2.794 1.22.99 1.211.99 3.433v6.93zm12.475-13.751v-2.245h2.244v2.245zm0 13.75v-11.418h2.244v11.419zm8.625.056q-1.408 0-2.046-.781-.627-.781-.627-2.244v-11.771h2.244v11.793q0 .407.165.638.165.23.484.23h1.078v2.135zm-3.85-9.45v-2.024h5.148v2.024z" aria-label="Submit" style="font-size:22.53px;font-family:Bahnschrift;-inkscape-font-specification:Bahnschrift;fill:#000;stroke:none;stroke-width:.905225"/><path d="M242.263 139.805h76.448v39.653h-76.448zM242.263 180.93h76.448v39.653h-76.448z" style="fill:none;fill-opacity:1;stroke:#000;stroke-width:1.47167;stroke-opacity:1"/><path stroke="none" d="M250.754 197.53v8.519h-1.195v-8.52zm1.992 8.519v-6.082h1.196v6.082zm3.692 0v-3.686q0-.644-.334-.996-.328-.351-.938-.351-.586 0-.908.31-.316.31-.316.873l-.123-1.172q.28-.55.732-.85.457-.298 1.008-.298.99 0 1.53.65.544.645.544 1.829v3.69zm5.162.088q-.809 0-1.47-.235-.657-.24-1.179-.714l.71-.873q.497.375.978.562.486.188.96.188.71 0 1.061-.217.358-.223.358-.662 0-.34-.24-.48-.235-.141-.622-.182-.38-.047-.82-.077-.369-.029-.732-.088-.364-.064-.662-.222-.3-.164-.48-.48-.177-.317-.177-.85 0-.967.592-1.448.592-.48 1.764-.48.715 0 1.33.193.615.194 1.154.592l-.72.873q-.458-.293-.903-.44-.44-.146-.861-.146-.61 0-.914.211-.305.205-.305.621 0 .276.211.399.21.117.557.152.345.035.744.064.38.024.767.088.393.059.721.235.328.176.527.521.2.346.2.944 0 .978-.64 1.464-.632.487-1.91.487zm5.654-.059q-.75 0-1.09-.416-.334-.416-.334-1.195v-6.27h1.196v6.282q0 .216.087.34.088.123.258.123h.574v1.136zm-2.05-5.033v-1.078h2.741v1.078zm4.382 5.004v-6.082h1.195v6.082zm3.346-4.64q-.158-.194-.399-.294-.24-.1-.556-.1-.569 0-.885.317-.31.31-.31.867l-.124-1.172q.276-.539.721-.843.451-.305.99-.305.416 0 .75.123.34.117.592.352zm5.443 4.64v-6.082h1.19v6.082zm-2.472-6.082v3.697q0 .639.322.99.328.346.92.346.592 0 .908-.31.322-.317.322-.885l.082 1.271q-.164.41-.574.739-.41.322-1.072.322-1.008 0-1.559-.645-.545-.65-.545-1.828v-3.697zm7.933 6.17q-1.254 0-1.945-.692-.686-.691-.686-1.95v-1.003q0-1.248.686-1.927.691-.686 1.945-.686.715 0 1.29.252.573.252.913.72l-.861.774q-.252-.293-.598-.451-.345-.158-.726-.158-.692 0-1.073.386-.38.387-.38 1.09v1.002q0 .72.38 1.114.381.392 1.073.392.38 0 .726-.17t.598-.48l.861.832q-.34.457-.92.709-.574.246-1.283.246zm5.104-.059q-.75 0-1.09-.416-.334-.416-.334-1.195v-6.27h1.195v6.282q0 .216.088.34.088.123.258.123h.574v1.136zm-2.051-5.033v-1.078h2.742v1.078zm4.383-2.32v-1.196h1.195v1.196zm0 7.324v-6.082h1.195v6.082zm5.343.088q-1.195 0-1.851-.692-.656-.697-.656-1.957v-.99q0-1.248.656-1.933.656-.686 1.851-.686 1.196 0 1.852.686.656.685.656 1.933v1.008q0 1.254-.656 1.945-.656.686-1.852.686zm0-1.137q.627 0 .967-.392.346-.393.346-1.102v-1.008q0-.709-.346-1.096-.34-.386-.967-.386-.62 0-.966.386-.346.387-.346 1.096v1.008q0 .709.346 1.102.345.392.966.392zm4.207 1.049v-6.082h1.196v6.082zm3.692 0v-3.686q0-.644-.334-.996-.328-.351-.938-.351-.586 0-.908.31-.316.31-.316.873l-.123-1.172q.281-.55.732-.85.457-.298 1.008-.298.99 0 1.53.65.544.645.544 1.829v3.69zm5.162.088q-.809 0-1.47-.235-.657-.24-1.178-.714l.708-.873q.499.375.979.562.486.188.961.188.709 0 1.06-.217.358-.223.358-.662 0-.34-.24-.48-.235-.141-.621-.182-.381-.047-.82-.077-.37-.029-.733-.088-.363-.064-.662-.222-.3-.164-.48-.48-.177-.317-.177-.85 0-.967.592-1.448.592-.48 1.764-.48.715 0 1.33.193.615.194 1.154.592l-.72.873q-.457-.293-.903-.44-.44-.146-.861-.146-.61 0-.914.211-.305.205-.305.621 0 .276.211.399.211.117.557.152.345.035.744.064.38.024.768.088.392.059.72.235.328.176.528.521.199.346.199.944 0 .978-.639 1.464-.633.487-1.91.487z" aria-label="Instructions" style="font-family:Bahnschrift;-inkscape-font-specification:Bahnschrift;fill:#000;stroke:none"/><path stroke="none" d="M258.077 166.798q-1.136 0-2.144-.214-.997-.215-1.876-.643-.868-.43-1.63-1.072l1.362-1.673q.89.772 1.962 1.158 1.072.386 2.326.386 1.694 0 2.626-.633.933-.632.933-1.768v-.011q0-.89-.472-1.361-.471-.472-1.243-.697-.761-.236-1.672-.386-.88-.15-1.78-.354-.89-.203-1.64-.632-.75-.44-1.211-1.254-.45-.815-.45-2.177v-.01q0-2.176 1.447-3.366 1.447-1.2 4.084-1.2 1.254 0 2.455.406 1.2.397 2.337 1.222l-1.244 1.737q-.89-.665-1.78-.986-.878-.322-1.768-.322-1.597 0-2.487.643-.88.633-.88 1.801v.011q0 .88.515 1.34.515.461 1.34.686.837.215 1.79.407.858.172 1.716.419.857.235 1.554.696.708.45 1.126 1.244.428.793.428 2.069v.021q0 2.155-1.5 3.334-1.501 1.18-4.224 1.18zm13.11 0q-2.294 0-3.559-1.265-1.254-1.265-1.254-3.57v-1.833q0-2.283 1.254-3.526 1.265-1.255 3.56-1.255 1.307 0 2.358.461 1.05.461 1.672 1.319l-1.576 1.415q-.46-.536-1.093-.825-.633-.29-1.33-.29-1.264 0-1.961.708-.697.707-.697 1.993v1.834q0 1.318.697 2.036.697.719 1.962.719.696 0 1.329-.311.632-.311 1.093-.88l1.576 1.523q-.622.836-1.683 1.297-1.05.45-2.348.45zm6.443-.16V155.51h2.187v11.127zm6.12-8.49q-.289-.354-.728-.537-.44-.182-1.018-.182-1.04 0-1.62.579-.567.568-.567 1.586l-.225-2.143q.503-.987 1.318-1.544.826-.558 1.812-.558.76 0 1.372.226.622.214 1.083.643zm3.249-4.91v-2.187h2.187v2.187zm0 13.4V155.51h2.187v11.127zm5.51 4.523v-15.65h2.187v15.65zm4.985-4.363q-1.04 0-1.812-.493-.772-.504-1.136-1.415l.15-2.326q0 .718.257 1.222t.74.772q.493.268 1.19.268 1.082 0 1.672-.654.6-.665.6-1.865v-2.412q0-1.222-.6-1.898-.59-.675-1.672-.675-.697 0-1.19.257-.483.257-.74.75-.257.494-.257 1.201l-.225-2.144q.503-.975 1.318-1.5.815-.537 1.812-.537 1.79 0 2.765 1.19.976 1.18.976 3.345v2.423q0 2.133-1.008 3.312-1.007 1.18-2.84 1.18zm9.851-.107q-1.372 0-1.994-.761-.61-.761-.61-2.187v-11.47h2.186v11.491q0 .397.16.622.162.225.472.225h1.05v2.08zm-3.752-9.208v-1.973h5.017v1.973z" aria-label="Script" style="font-size:21.954px;font-family:Bahnschrift;-inkscape-font-specification:Bahnschrift;fill:#000;stroke:none;stroke-width:3.659"/></svg>