<?xml version="1.0" encoding="UTF-8" standalone="no"?>
<svg
   fill="none"
   stroke="#000"
   stroke-width="2"
   viewBox="0 0 347 347"
   version="1.1"
   id="svg1"
   sodipodi:docname="KTaNEfetch.svg"
   inkscape:version="1.4 (e7c3feb100, 2024-10-09)"
   xmlns:inkscape="http://www.inkscape.org/namespaces/inkscape"
   xmlns:sodipodi="http://sodipodi.sourceforge.net/DTD/sodipodi-0.dtd"
   xmlns="http://www.w3.org/2000/svg"
   xmlns:svg="http://www.w3.org/2000/svg">
  <defs
     id="defs1" />
  <sodipodi:namedview
     id="namedview1"
     pagecolor="#505050"
     bordercolor="#eeeeee"
     borderopacity="1"
     inkscape:showpageshadow="0"
     inkscape:pageopacity="0"
     inkscape:pagecheckerboard="0"
     inkscape:deskcolor="#505050"
     inkscape:zoom="1.7665706"
     inkscape:cx="173.5"
     inkscape:cy="173.5"
     inkscape:window-width="1440"
     inkscape:window-height="842"
     inkscape:window-x="0"
     inkscape:window-y="0"
     inkscape:window-maximized="1"
     inkscape:current-layer="svg1" />
  <rect
     width="337"
     height="337"
     x="5"
     y="5"
     id="rect1" />
  <circle
     cx="298"
     cy="40"
     r="16"
     id="circle1" />
  <rect
     style="fill:#000000;fill-opacity:1;stroke:#000000;stroke-width:1.5"
     id="rect2"
     width="241.71126"
     height="180.00978"
     x="24.340946"
     y="25.473083" />
  <rect
     style="fill:#000000;fill-opacity:0;stroke:#000000;stroke-width:1.5"
     id="rect3"
     width="41.322998"
     height="41.323002"
     x="28.410685"
     y="220.61786" />
  <rect
     style="fill:#000000;fill-opacity:0;stroke:#000000;stroke-width:1.5"
     id="rect4"
     width="41.322998"
     height="41.323002"
     x="28.410685"
     y="220.61786" />
  <rect
     style="fill:#000000;fill-opacity:0;stroke:#000000;stroke-width:1.5"
     id="rect5"
     width="41.323002"
     height="41.323002"
     x="71.234001"
     y="220.61786" />
  <rect
     style="fill:#000000;fill-opacity:0;stroke:#000000;stroke-width:1.5"
     id="rect6"
     width="41.323002"
     height="41.323002"
     x="114.057"
     y="220.61786" />
  <rect
     style="fill:#000000;fill-opacity:0;stroke:#000000;stroke-width:1.5"
     id="rect7"
     width="41.323002"
     height="41.323002"
     x="156.88"
     y="220.61786" />
  <rect
     style="fill:#000000;fill-opacity:0;stroke:#000000;stroke-width:1.5"
     id="rect8"
     width="41.323002"
     height="41.323002"
     x="199.703"
     y="220.61786" />
  <rect
     style="fill:#000000;fill-opacity:0;stroke:#000000;stroke-width:1.5"
     id="rect9"
     width="41.322998"
     height="41.323002"
     x="28.410685"
     y="263.44101" />
  <rect
     style="fill:#000000;fill-opacity:0;stroke:#000000;stroke-width:1.5"
     id="rect10"
     width="41.322998"
     height="41.323002"
     x="28.410685"
     y="263.44101" />
  <rect
     style="fill:#000000;fill-opacity:0;stroke:#000000;stroke-width:1.5"
     id="rect11"
     width="41.323002"
     height="41.323002"
     x="71.234001"
     y="263.44101" />
  <rect
     style="fill:#000000;fill-opacity:0;stroke:#000000;stroke-width:1.5"
     id="rect12"
     width="41.323002"
     height="41.323002"
     x="114.057"
     y="263.44101" />
  <rect
     style="fill:#000000;fill-opacity:0;stroke:#000000;stroke-width:1.5"
     id="rect13"
     width="41.323002"
     height="41.323002"
     x="156.88"
     y="263.44101" />
  <rect
     style="fill:#000000;fill-opacity:0;stroke:#000000;stroke-width:1.5"
     id="rect14"
     width="41.323002"
     height="41.323002"
     x="199.703"
     y="263.44101" />
  <path
     style="font-size:37.3333px;font-family:Bahnschrift;-inkscape-font-specification:Bahnschrift;fill:#000000;stroke:none;stroke-width:1.5"
     d="m 52.720077,228.7917 v 26.50519 h -3.718746 v -22.45831 l -3.773435,2.3151 v -3.84635 l 3.773435,-2.51563 z"
     id="text14"
     aria-label="1" />
  <path
     d="m 84.413265,254.73083 v -3.22655 l 9.242179,-12.32291 q 0.802083,-1.05729 1.239582,-2.1875 0.455729,-1.13021 0.455729,-2.13281 v -0.0365 q 0,-1.58593 -0.929687,-2.46093 -0.929686,-0.875 -2.643226,-0.875 -1.604166,0 -2.624998,0.96614 -1.002604,0.94792 -1.221353,2.69792 v 0.0182 H 84.08514 v -0.0182 q 0.492187,-3.42708 2.497393,-5.30469 2.005207,-1.89583 5.15885,-1.89583 3.572914,0 5.523433,1.80469 1.950519,1.80468 1.950519,5.10416 v 0.0182 q 0,1.40364 -0.583333,2.95312 -0.583332,1.53125 -1.622394,2.9349 l -7.674473,10.42707 h 10.026033 v 3.53645 z"
     id="text15"
     style="font-size:37.3333px;font-family:Bahnschrift;-inkscape-font-specification:Bahnschrift;fill:#000000;stroke:none;stroke-width:1.5"
     aria-label="2" />
  <path
     d="m 135.25575,255.00427 q -2.24219,0 -3.9375,-0.80208 -1.67708,-0.82031 -2.69791,-2.35156 -1.02084,-1.53125 -1.3125,-3.71875 v 0 h 3.79166 v 0 q 0.25521,1.71354 1.34896,2.51563 1.09375,0.78385 2.80729,0.78385 1.84114,0 2.86197,-0.98438 1.02084,-0.98437 1.02084,-2.77083 v -0.80208 q 0,-1.98698 -0.96615,-3.0625 -0.96614,-1.09375 -2.73437,-1.09375 h -1.8776 v -3.53645 h 1.8776 q 1.56771,0 2.40625,-0.92969 0.85677,-0.92968 0.85677,-2.625 v -0.82031 q 0,-1.5677 -0.91146,-2.42447 -0.89323,-0.85677 -2.55208,-0.85677 -1.40365,0 -2.38802,0.80208 -0.96615,0.78385 -1.33073,2.49739 v 0 h -3.77343 v 0 q 0.5651,-3.28125 2.51562,-5.0677 1.96875,-1.80469 4.97656,-1.80469 3.42708,0 5.30468,1.80469 1.8776,1.80468 1.8776,5.08593 v 0.4375 q 0,1.98698 -1.07552,3.46354 -1.07552,1.45833 -3.04426,2.15104 2.16926,0.45573 3.35416,2.13281 1.20312,1.65885 1.20312,4.22916 v 0.4375 q 0,3.48177 -1.98697,5.39583 -1.98698,1.91406 -5.61458,1.91406 z"
     id="text16"
     style="font-size:37.3333px;font-family:Bahnschrift;-inkscape-font-specification:Bahnschrift;fill:#000000;stroke:none;stroke-width:1.5"
     aria-label="3" />
  <path
     d="m 169.36001,250.66573 v -3.22656 l 8.89582,-19.19529 h 3.82813 l -8.67708,18.97654 h 12.99739 v 3.44531 z m 11.42968,4.08333 v -15.60415 h 3.6276 v 15.60415 z"
     id="text17"
     style="font-size:37.3333px;font-family:Bahnschrift;-inkscape-font-specification:Bahnschrift;fill:#000000;stroke:none;stroke-width:1.5"
     aria-label="4" />
  <path
     d="m 221.27898,254.4382 q -3.02604,0 -4.97656,-1.73177 -1.93229,-1.75 -2.42448,-4.92187 v -0.0182 h 3.71875 v 0.0182 q 0.20052,1.45833 1.16667,2.27865 0.96614,0.80208 2.51562,0.80208 1.78645,0 2.7526,-1.1849 0.98437,-1.20312 0.98437,-3.37239 v -2.22396 q 0,-2.16927 -0.98437,-3.35416 -0.96615,-1.18489 -2.7526,-1.18489 -0.96615,0 -1.85938,0.54687 -0.89322,0.54687 -1.5677,1.53125 h -3.39062 v -13.96353 h 13.5078 v 3.53645 h -9.78906 v 5.96094 q 0.69271,-0.56511 1.54948,-0.875 0.85677,-0.3099 1.75,-0.3099 3.46354,0 5.35937,2.13281 1.89583,2.11458 1.89583,5.97916 v 2.22396 q 0,3.88281 -1.95052,6.01562 -1.95052,2.11458 -5.5052,2.11458 z"
     id="text18"
     style="font-size:37.3333px;font-family:Bahnschrift;-inkscape-font-specification:Bahnschrift;fill:#000000;stroke:none;stroke-width:1.5"
     aria-label="5" />
  <path
     d="m 49.195098,297.45941 q -3.518226,0 -5.450516,-2.09635 -1.93229,-2.09635 -1.93229,-5.90625 v -0.0182 q 0,-1.71354 0.473958,-3.6276 0.473958,-1.93229 1.367186,-3.71874 l 5.760412,-11.41145 h 4.010413 l -6.763015,13.21613 0.01823,-0.65625 q 0.947916,-1.80468 3.372393,-1.80468 3.117185,0 4.830726,2.07812 1.71354,2.05989 1.71354,5.83333 v 0.0182 q 0,3.84635 -1.93229,5.97916 -1.93229,2.11458 -5.468746,2.11458 z m 0,-3.57291 q 1.786457,0 2.734373,-1.09375 0.947916,-1.09375 0.947916,-3.11719 v -0.0182 q 0,-2.22395 -1.002603,-3.42708 -1.002604,-1.22135 -2.861977,-1.22135 -1.658853,0 -2.57031,1.22135 -0.911458,1.22136 -0.911458,3.44531 v 0.0182 q 0,2.02344 0.947916,3.11719 0.966145,1.07552 2.716143,1.07552 z"
     id="text19"
     style="font-size:37.3333px;font-family:Bahnschrift;-inkscape-font-specification:Bahnschrift;fill:#000000;stroke:none;stroke-width:1.5"
     aria-label="6" />
  <path
     d="m 98.504398,271.81293 v 3.3177 l -6.85416,23.18749 h -3.955726 l 6.854161,-22.96874 h -6.744786 v 3.8099 H 84.08514 v -7.34635 z"
     id="text20"
     style="font-size:37.3333px;font-family:Bahnschrift;-inkscape-font-specification:Bahnschrift;fill:#000000;stroke:none;stroke-width:1.5"
     aria-label="7" />
  <path
     d="m 135.60113,298.02548 q -2.42447,0 -4.22916,-0.91146 -1.80469,-0.91145 -2.80729,-2.57031 -1.0026,-1.65885 -1.0026,-3.88281 v -0.43749 q 0,-1.98698 0.98437,-3.73698 1.00261,-1.75 2.66146,-2.64323 -1.38542,-0.76562 -2.24219,-2.20572 -0.85677,-1.45834 -0.85677,-3.0625 v -0.63802 q 0,-3.15365 2.04167,-5.04948 2.05989,-1.91406 5.45051,-1.91406 3.39063,0 5.43229,1.91406 2.0599,1.89583 2.0599,5.04948 v 0.63802 q 0,1.64062 -0.875,3.08072 -0.85677,1.44011 -2.27865,2.1875 1.67708,0.89323 2.67969,2.64323 1.02083,1.75 1.02083,3.73698 v 0.43749 q 0,2.22396 -1.0026,3.88281 -1.00261,1.65886 -2.80729,2.57031 -1.80469,0.91146 -4.22917,0.91146 z m 0,-3.57291 q 1.95052,0 3.13542,-1.11198 1.20312,-1.13021 1.20312,-2.95312 v -0.25521 q 0,-1.84114 -1.20312,-2.95312 -1.1849,-1.13021 -3.13542,-1.13021 -1.95052,0 -3.15364,1.13021 -1.18489,1.11198 -1.18489,2.97135 v 0.27344 q 0,1.82291 1.18489,2.93489 1.20312,1.09375 3.15364,1.09375 z m 0,-11.97655 q 1.69531,0 2.73438,-1.07552 1.03906,-1.07552 1.03906,-2.84375 v -0.25521 q 0,-1.69531 -1.03906,-2.71614 -1.03907,-1.03906 -2.73438,-1.03906 -1.69531,0 -2.73437,1.03906 -1.03906,1.02083 -1.03906,2.73437 v 0.27344 q 0,1.75 1.03906,2.82552 1.03906,1.05729 2.73437,1.05729 z"
     id="text21"
     style="font-size:37.3333px;font-family:Bahnschrift;-inkscape-font-specification:Bahnschrift;fill:#000000;stroke:none;stroke-width:1.5"
     aria-label="8" />
  <path
     d="m 174.705,297.18597 6.67187,-13.16144 -0.0182,0.65625 q -0.47396,0.85677 -1.40364,1.23958 -0.92969,0.38281 -2.15104,0.38281 -2.86198,0 -4.61198,-2.11458 -1.75,-2.13281 -1.75,-5.65104 v -0.0182 q 0,-3.86458 1.93229,-5.97916 1.95052,-2.13281 5.46875,-2.13281 3.51823,0 5.45052,2.15104 1.93229,2.13281 1.93229,6.05208 v 0.0182 q 0,1.62239 -0.47396,3.51822 -0.47396,1.87761 -1.38542,3.68229 l -5.65103,11.35676 z m 4.13802,-14.27342 q 1.75,0 2.69791,-1.1849 0.96615,-1.18489 0.96615,-3.33593 v -0.0182 q 0,-2.09635 -0.96615,-3.24479 -0.94791,-1.14844 -2.69791,-1.14844 -1.76823,0 -2.73437,1.14844 -0.94792,1.14844 -0.94792,3.26302 v 0.0182 q 0,2.15104 0.94792,3.33593 0.96614,1.16667 2.73437,1.16667 z"
     id="text22"
     style="font-size:37.3333px;font-family:Bahnschrift;-inkscape-font-specification:Bahnschrift;fill:#000000;stroke:none;stroke-width:1.5"
     aria-label="9" />
  <path
     d="m 221.44303,298.59152 q -3.79167,0 -5.6875,-2.02343 -1.8776,-2.04167 -1.8776,-5.50521 v -12.04947 q 0,-3.51822 1.91406,-5.52343 1.91406,-2.00521 5.65104,-2.00521 3.7552,0 5.65103,2.00521 1.91406,1.98698 1.91406,5.52343 v 12.04947 q 0,3.51823 -1.91406,5.52344 -1.89583,2.0052 -5.65103,2.0052 z m 0,-3.53645 q 2.04166,0 2.93489,-1.05729 0.91146,-1.07552 0.91146,-2.9349 v -12.04947 q 0,-1.8776 -0.91146,-2.93489 -0.89323,-1.05729 -2.93489,-1.05729 -2.04167,0 -2.95313,1.05729 -0.89323,1.05729 -0.89323,2.93489 v 12.04947 q 0,1.85938 0.89323,2.9349 0.91146,1.05729 2.95313,1.05729 z"
     id="text23"
     style="font-size:37.3333px;font-family:Bahnschrift;-inkscape-font-specification:Bahnschrift;fill:#000000;stroke:none;stroke-width:1.5"
     aria-label="0" />
  <rect
     style="fill:none;fill-opacity:1;stroke:#000000;stroke-width:1.47167;stroke-opacity:1"
     id="rect23"
     width="76.447578"
     height="39.653126"
     x="242.26315"
     y="221.31863" />
  <rect
     style="fill:none;fill-opacity:1;stroke:#000000;stroke-width:1.47167;stroke-opacity:1"
     id="rect24"
     width="76.447578"
     height="39.653328"
     x="242.26315"
     y="262.44385" />
  <path
     d="m 245.42749,246.1821 v -1.38984 h 2.89734 q 1.19129,0 1.68399,-0.45593 0.50005,-0.45593 0.50005,-1.19865 v -0.0221 q 0,-0.79419 -0.42651,-1.26483 -0.41916,-0.47799 -1.38985,-0.47799 h -3.26502 v -1.35307 h 3.26502 q 0.83097,0 1.25013,-0.38974 0.42651,-0.3971 0.42651,-1.15453 v 0 q 0,-0.80155 -0.47064,-1.19865 -0.47063,-0.39709 -1.4119,-0.39709 h -3.05912 v -1.38985 h 3.33121 q 1.58103,0 2.35317,0.78685 0.77213,0.78684 0.77213,2.1105 v 0 q 0,0.80155 -0.47063,1.47073 -0.47064,0.66183 -1.47809,0.84567 0.99275,0.14707 1.53692,0.87509 0.55152,0.72801 0.55152,1.66928 v 0.0221 q 0,1.30895 -0.84567,2.1105 -0.84567,0.80155 -2.29434,0.80155 z m -0.88244,0 v -10.69223 h 1.49279 v 10.69223 z m 13.88371,0 v -4.83871 q 0,-0.75007 -0.40445,-1.16188 -0.3971,-0.41916 -1.13246,-0.41916 -0.44858,0 -0.8898,0.13972 -0.43386,0.13237 -0.77948,0.38975 l -1.0957,-0.75008 q 0.43387,-0.52211 1.13982,-0.8089 0.7133,-0.29415 1.58104,-0.29415 1.43396,0 2.2208,0.74272 0.78684,0.74272 0.78684,2.0958 v 4.90489 z m -1.86783,0.1103 q -1.40455,0 -2.1105,-0.58094 -0.6986,-0.58094 -0.6986,-1.77958 0,-1.13982 0.63977,-1.6987 0.64712,-0.56623 1.93402,-0.56623 h 2.16933 l 0.10295,1.206 h -2.26493 q -0.58094,0 -0.87509,0.26473 -0.29414,0.25738 -0.29414,0.7942 0,0.58094 0.38974,0.86038 0.38975,0.27944 1.16923,0.27944 0.85303,0 1.27954,-0.18385 0.42651,-0.18384 0.42651,-0.57358 l 0.15443,1.07363 q -0.19855,0.30886 -0.4927,0.50741 -0.29414,0.19854 -0.67653,0.29414 -0.37504,0.10295 -0.85303,0.10295 z m 8.65526,0 q -1.57368,0 -2.44141,-0.86773 -0.86038,-0.86773 -0.86038,-2.44877 v -1.25747 q 0,-1.56633 0.86038,-2.41936 0.86773,-0.86038 2.44141,-0.86038 0.89715,0 1.61781,0.31621 0.72066,0.31621 1.14717,0.9045 v 0 l -1.08099,0.97068 v 0 q -0.3162,-0.36768 -0.75007,-0.56623 -0.43387,-0.19855 -0.91186,-0.19855 -0.86773,0 -1.34572,0.48534 -0.47798,0.48535 -0.47798,1.36779 v 1.25747 q 0,0.9045 0.47798,1.3972 0.47799,0.49269 1.34572,0.49269 0.47799,0 0.91186,-0.21325 0.43387,-0.21326 0.75007,-0.603 v 0 l 1.08099,1.04422 v 0 q -0.42651,0.57358 -1.15452,0.88979 -0.72066,0.30885 -1.61046,0.30885 z m 4.97108,-1.22806 0.0956,-1.77958 3.92685,-4.73576 h 1.76488 z m -0.55153,1.11776 v -10.69223 h 1.50015 v 10.69223 z m 5.08138,0 -2.66202,-4.40485 0.96333,-1.00009 3.33121,5.40494 z m 5.58143,0.1103 q -1.0148,0 -1.84577,-0.29414 -0.82361,-0.3015 -1.47808,-0.89715 v 0 l 0.88979,-1.0957 v 0 q 0.62506,0.47064 1.22806,0.70596 0.61036,0.23531 1.206,0.23531 0.8898,0 1.33101,-0.27208 0.44858,-0.27944 0.44858,-0.83097 0,-0.42651 -0.3015,-0.603 -0.29415,-0.17648 -0.77949,-0.22796 -0.47799,-0.0588 -1.02951,-0.0956 -0.46328,-0.0368 -0.91921,-0.1103 -0.45593,-0.0809 -0.83096,-0.27944 -0.37504,-0.2059 -0.603,-0.603 -0.22061,-0.3971 -0.22061,-1.06628 0,-1.21336 0.74272,-1.81636 0.74272,-0.603 2.21345,-0.603 0.89714,0 1.66928,0.24267 0.77213,0.24267 1.44867,0.74272 v 0 l -0.9045,1.0957 v 0 q -0.57359,-0.36768 -1.13246,-0.55153 -0.55153,-0.18384 -1.08099,-0.18384 -0.76478,0 -1.14717,0.26473 -0.38239,0.25738 -0.38239,0.77949 0,0.34562 0.26473,0.50005 0.26473,0.14707 0.6986,0.1912 0.43386,0.0441 0.93391,0.0809 0.47799,0.0294 0.96333,0.1103 0.4927,0.0735 0.9045,0.29415 0.41181,0.22061 0.66183,0.65447 0.25002,0.43387 0.25002,1.18394 0,1.22807 -0.80154,1.83842 -0.7942,0.61035 -2.3973,0.61035 z m 5.1108,2.99294 V 238.549 h 1.50014 v 10.73634 z m 3.41945,-2.99294 q -0.71331,0 -1.24277,-0.33827 -0.52946,-0.34562 -0.77949,-0.97068 l 0.10295,-1.59574 q 0,0.49269 0.17649,0.83831 0.17649,0.34563 0.5074,0.52947 0.33827,0.18384 0.81626,0.18384 0.74272,0 1.14717,-0.44857 0.41181,-0.45593 0.41181,-1.27954 v -1.65458 q 0,-0.83831 -0.41181,-1.30159 -0.40445,-0.46328 -1.14717,-0.46328 -0.47799,0 -0.81626,0.17648 -0.33091,0.17649 -0.5074,0.51476 -0.17649,0.33827 -0.17649,0.82361 l -0.15442,-1.47073 q 0.34562,-0.66919 0.9045,-1.02951 0.55888,-0.36769 1.24277,-0.36769 1.22806,0 1.89724,0.81626 0.66918,0.8089 0.66918,2.29434 v 1.66193 q 0,1.46338 -0.69124,2.27228 -0.69124,0.8089 -1.94872,0.8089 z m 9.08178,-0.1103 v -4.83871 q 0,-0.75007 -0.40446,-1.16188 -0.39709,-0.41916 -1.13246,-0.41916 -0.44857,0 -0.88979,0.13972 -0.43387,0.13237 -0.77949,0.38975 l -1.0957,-0.75008 q 0.43387,-0.52211 1.13982,-0.8089 0.71331,-0.29415 1.58104,-0.29415 1.43396,0 2.2208,0.74272 0.78685,0.74272 0.78685,2.0958 v 4.90489 z m -1.86783,0.1103 q -1.40455,0 -2.11051,-0.58094 -0.69859,-0.58094 -0.69859,-1.77958 0,-1.13982 0.63977,-1.6987 0.64712,-0.56623 1.93401,-0.56623 h 2.16933 l 0.10295,1.206 h -2.26493 q -0.58094,0 -0.87508,0.26473 -0.29415,0.25738 -0.29415,0.7942 0,0.58094 0.38974,0.86038 0.38975,0.27944 1.16924,0.27944 0.85302,0 1.27953,-0.18385 0.42652,-0.18384 0.42652,-0.57358 l 0.15442,1.07363 q -0.19855,0.30886 -0.49269,0.50741 -0.29415,0.19854 -0.67654,0.29414 -0.37504,0.10295 -0.85302,0.10295 z m 8.65526,0 q -1.57369,0 -2.44142,-0.86773 -0.86038,-0.86773 -0.86038,-2.44877 v -1.25747 q 0,-1.56633 0.86038,-2.41936 0.86773,-0.86038 2.44142,-0.86038 0.89714,0 1.6178,0.31621 0.72066,0.31621 1.14717,0.9045 v 0 l -1.08099,0.97068 v 0 q -0.3162,-0.36768 -0.75007,-0.56623 -0.43387,-0.19855 -0.91185,-0.19855 -0.86774,0 -1.34572,0.48534 -0.47799,0.48535 -0.47799,1.36779 v 1.25747 q 0,0.9045 0.47799,1.3972 0.47798,0.49269 1.34572,0.49269 0.47798,0 0.91185,-0.21325 0.43387,-0.21326 0.75007,-0.603 v 0 l 1.08099,1.04422 v 0 q -0.42651,0.57358 -1.15452,0.88979 -0.72066,0.30885 -1.61045,0.30885 z m 7.54485,0 q -1.59574,0 -2.47083,-0.88979 -0.87508,-0.88979 -0.87508,-2.52966 v -0.86038 q 0,-1.70605 0.83831,-2.63996 0.84568,-0.93392 2.37524,-0.93392 1.44132,0 2.22816,1.05893 0.79419,1.05893 0.79419,2.97088 v 0.50005 h -5.14756 v -1.206 h 3.72095 v 0 q -0.0662,-0.92656 -0.48534,-1.44867 -0.4118,-0.52211 -1.1104,-0.52211 -0.84567,0 -1.31631,0.55887 -0.47063,0.55888 -0.47063,1.58104 v 0.97069 q 0,0.94862 0.50005,1.45602 0.5074,0.5074 1.41925,0.5074 0.45593,0 0.9045,-0.18384 0.44858,-0.18384 0.80155,-0.51476 v 0 l 0.98539,0.9854 v 0 q -0.56623,0.54417 -1.27218,0.84567 -0.70595,0.29414 -1.41926,0.29414 z"
     id="text24"
     style="font-size:15.0603px;font-family:Bahnschrift;-inkscape-font-specification:Bahnschrift;fill:#000000;stroke:none;stroke-width:0.605102"
     aria-label="Backspace" />
  <path
     d="m 252.81449,289.83185 q -1.1661,0 -2.2002,-0.22002 -1.02309,-0.22001 -1.92517,-0.66005 -0.89108,-0.44004 -1.67215,-1.1001 v 0 l 1.39713,-1.71615 v 0 q 0.91308,0.79207 2.01318,1.1881 1.10009,0.39604 2.38721,0.39604 1.73815,0 2.69524,-0.64906 0.95708,-0.64906 0.95708,-1.81516 v -0.011 q 0,-0.91308 -0.48404,-1.39713 -0.48404,-0.48404 -1.27611,-0.71506 -0.78107,-0.24202 -1.71616,-0.39604 -0.90208,-0.15401 -1.82616,-0.36303 -0.91308,-0.20902 -1.68315,-0.64906 -0.77007,-0.45104 -1.24311,-1.28711 -0.46204,-0.83607 -0.46204,-2.2332 v -0.011 q 0,-2.2332 1.48513,-3.45431 1.48514,-1.23211 4.19138,-1.23211 1.28711,0 2.51922,0.41804 1.23211,0.40704 2.39821,1.25411 v 0 l -1.27611,1.78216 v 0 q -0.91308,-0.68206 -1.82616,-1.01209 -0.90208,-0.33003 -1.81516,-0.33003 -1.63915,0 -2.55223,0.66006 -0.90208,0.64906 -0.90208,1.84816 v 0.011 q 0,0.90208 0.52805,1.37512 0.52804,0.47304 1.37512,0.70406 0.85807,0.22002 1.83716,0.41804 0.88008,0.17601 1.76016,0.42904 0.88008,0.24202 1.59514,0.71506 0.72606,0.46204 1.1551,1.27611 0.44004,0.81407 0.44004,2.12319 v 0.022 q 0,2.2112 -1.54014,3.42131 -1.54013,1.2101 -4.33438,1.2101 z m 15.7314,-0.16501 v -11.41901 h 2.23319 v 11.41901 z m -4.64242,-11.41901 v 6.94161 q 0,1.19911 0.60506,1.85917 0.61605,0.64905 1.72715,0.64905 1.1111,0 1.70515,-0.58305 0.60506,-0.59405 0.60506,-1.66114 l 0.15401,2.38721 q -0.30803,0.77007 -1.0781,1.38612 -0.77007,0.60505 -2.01318,0.60505 -1.89216,0 -2.92626,-1.2101 -1.02309,-1.22111 -1.02309,-3.43231 v -6.94161 z m 15.40137,11.58402 q -1.06709,0 -1.85916,-0.50604 -0.79208,-0.51705 -1.16611,-1.45213 l 0.15402,-2.38721 q 0,0.73706 0.26402,1.25411 0.26402,0.51705 0.75907,0.79207 0.50604,0.27502 1.2211,0.27502 1.1111,0 1.71616,-0.67106 0.61605,-0.68206 0.61605,-1.91417 v -2.47521 q 0,-1.25412 -0.61605,-1.94718 -0.60506,-0.69306 -1.71616,-0.69306 -0.71506,0 -1.2211,0.26402 -0.49505,0.26403 -0.75907,0.77007 -0.26402,0.50605 -0.26402,1.23211 l -0.23103,-2.20019 q 0.51705,-1.00109 1.35312,-1.54014 0.83608,-0.55005 1.85917,-0.55005 1.83716,0 2.83825,1.22111 1.00109,1.21011 1.00109,3.4323 v 2.48622 q 0,2.1892 -1.03409,3.39931 -1.03409,1.2101 -2.91526,1.2101 z m -5.11545,-0.16501 v -15.99542 h 2.2442 v 15.99542 z m 25.8963,0 v -6.91961 q 0,-1.21011 -0.62706,-1.87017 -0.61605,-0.66006 -1.76016,-0.66006 -1.04509,0 -1.61714,0.63806 -0.57205,0.63805 -0.57205,1.80416 l -0.45104,-2.2002 q 0.55005,-1.1441 1.43013,-1.76015 0.88007,-0.61606 1.94717,-0.61606 1.85916,0 2.87125,1.22111 1.0231,1.21011 1.0231,3.4323 v 6.93062 z m -13.64122,0 v -11.41901 h 2.2442 v 11.41901 z m 6.82061,0 v -6.91961 q 0,-1.21011 -0.59405,-1.87017 -0.59405,-0.66006 -1.68315,-0.66006 -1.1001,0 -1.70515,0.58305 -0.59406,0.58305 -0.59406,1.63915 l -0.23102,-2.2002 q 0.52805,-1.03409 1.37513,-1.59514 0.85807,-0.56105 1.89216,-0.56105 1.80416,0 2.79425,1.22111 0.99009,1.21011 0.99009,3.4323 v 6.93062 z m 12.47511,-13.75122 v -2.2442 h 2.2442 v 2.2442 z m 0,13.75122 v -11.41901 h 2.2442 v 11.41901 z m 8.62476,0.055 q -1.40812,0 -2.04618,-0.78106 -0.62705,-0.78107 -0.62705,-2.2442 v -11.77105 h 2.24419 v 11.79305 q 0,0.40703 0.16502,0.63805 0.16501,0.23102 0.48404,0.23102 h 1.0781 v 2.13419 z m -3.85034,-9.44983 v -2.02418 h 5.14846 v 2.02418 z"
     id="text25"
     style="font-size:22.53px;font-family:Bahnschrift;-inkscape-font-specification:Bahnschrift;fill:#000000;stroke:none;stroke-width:0.905225"
     aria-label="Submit" />
</svg>
