<svg xmlns="http://www.w3.org/2000/svg" fill="none" stroke="#000" stroke-width="2" viewBox="0 0 347 347"><path d="M5 5h337v337H5z"/><circle cx="298" cy="40" r="16"/><path stroke="none" d="m69.858 152.212-5.941 8.543-10.31 5.141-1.955 4.696 1.069 10.9-1.722 8.29.119 3.566 6.27 4.016 16.868 2.486 15.214 5.763 10.585-1.918 4.44-5.506 19.216-2.682 16.344 2.12 3.323 5.692 7.614 4.007 6.954-.917 7.231-3.62 8.349-8.108 16.82-9.796 1.187-5.573-5.51-7.947-3.67-12.37-4.772-3.046-4.177-28.836L143 84.773l-1.99-37.226L99.626 60.23l-.301 27.025-9.746 28.935z" style="color:#000;clip-rule:nonzero;display:inline;overflow:visible;visibility:visible;isolation:auto;mix-blend-mode:normal;color-interpolation:sRGB;color-interpolation-filters:linearRGB;solid-color:#000;solid-opacity:1;fill:#fff;fill-opacity:1;fill-rule:nonzero;stroke:none;stroke-width:2.00933;stroke-linecap:butt;stroke-linejoin:miter;stroke-miterlimit:4;stroke-dasharray:none;stroke-dashoffset:0;stroke-opacity:1;color-rendering:auto;image-rendering:auto;shape-rendering:auto;text-rendering:auto;enable-background:accumulate" transform="matrix(.83545 0 0 .83545 11.739 -4.802)"/><path stroke="none" d="M124.611 35.452a42.88 42.88 0 0 0-3.465.14c-30.43 2.45-22.36 34.598-22.811 45.363-.556 7.872-2.152 14.076-7.567 21.772-6.36 7.565-15.316 19.808-19.559 32.552-2.002 6.015-2.955 12.146-2.075 17.948a12.58 12.58 0 0 0-.787.772c-1.868 1.994-3.248 4.41-4.786 6.036-1.436 1.433-3.483 1.978-5.732 2.785-2.25.808-4.72 1.998-6.22 4.875v.001l-.008.014c-1.358 2.535-.954 5.455-.54 8.16.415 2.705.835 5.261.277 6.996-1.78 4.867-2.008 8.233-.754 10.676 1.256 2.447 3.84 3.527 6.758 4.137 5.839 1.22 13.746.916 20.2 4.313 6.454 3.397 13.218 4.636 18.614 3.403 3.912-.893 7.088-3.223 8.719-6.807 4.22-.021 8.851-1.809 16.27-2.217 5.033-.405 11.32 1.787 18.551 1.386a9.82 9.82 0 0 0 .837 2.256l.011.022c2.803 5.606 8.012 8.17 13.563 7.732 5.558-.44 11.468-3.716 16.136-9.323 4.669-5.607 12.226-7.897 17.237-10.92 2.506-1.51 4.54-3.403 4.696-6.151.157-2.747-1.456-5.826-5.164-9.942l-.001-.001-.005-.005c-1.219-1.377-1.8-3.93-2.425-6.647-.624-2.717-1.32-5.646-3.55-7.545a8.987 8.987 0 0 0-2.752-1.662c3.1-9.194 1.883-18.35-1.247-26.624-3.84-10.154-10.546-19.001-15.667-25.054-5.732-7.23-11.339-14.095-11.229-24.234.171-15.474 1.703-44.17-25.527-44.207zm3.686 23.839c1.545 0 2.865.453 4.22 1.437 1.378 1 2.37 2.25 3.17 3.998.784 1.703 1.162 3.368 1.199 5.345 0 .052 0 .097.015.148.016 2.029-.333 3.754-1.103 5.516-.44 1.006-.944 1.85-1.548 2.58a12.128 12.128 0 0 0-.639-.284 52.51 52.51 0 0 0-3.683-1.412c.354-.427.65-.932.91-1.565.392-.955.585-1.888.622-2.998 0-.045.015-.082.015-.134a8.32 8.32 0 0 0-.43-2.91c-.325-.977-.74-1.68-1.34-2.265-.6-.585-1.199-.851-1.917-.873-.034-.002-.067-.002-.1-.002-.676.002-1.263.234-1.87.742-.636.533-1.11 1.214-1.503 2.162-.392.947-.584 1.888-.621 3.006-.008.044-.008.081-.008.125a8.942 8.942 0 0 0 .12 1.725c-1.382-.69-2.684-1.159-3.907-1.45a15.18 15.18 0 0 1-.123-1.644v-.156c-.022-2.021.311-3.754 1.089-5.516.777-1.762 1.74-3.028 3.095-4.057 1.354-1.029 2.687-1.503 4.264-1.518h.074zm-21.148 1.674c1.025.003 1.942.345 2.89 1.103 1.03.822 1.807 1.873 2.459 3.354.651 1.48 1 2.961 1.096 4.709v.015c.046.734.04 1.424-.017 2.093-.203.058-.402.12-.596.187-1.105.38-2.08.9-2.928 1.46a7.682 7.682 0 0 0 .031-1.845c-.008-.037-.008-.066-.008-.103a8.059 8.059 0 0 0-.585-2.37c-.333-.777-.703-1.325-1.192-1.747-.443-.382-.86-.558-1.321-.555-.048 0-.096.004-.145.007-.518.044-.947.296-1.355.792-.407.496-.673 1.11-.866 1.925-.192.814-.244 1.614-.163 2.532 0 .037.008.066.008.103.09.889.267 1.63.585 2.377.326.77.704 1.318 1.192 1.74.082.07.163.134.244.19-.509.392-.751.572-1.168.878l-.955.702c-.806-.755-1.435-1.705-1.986-2.955-.651-1.48-1-2.961-1.103-4.708v-.016c-.096-1.747.074-3.25.556-4.805.48-1.555 1.125-2.68 2.058-3.605.933-.926 1.873-1.392 3.006-1.452.088-.004.176-.007.263-.006zm9.618 12.122c2.383-.009 5.25.772 8.72 3.004 2.132 1.386 3.79 1.502 7.61 3.138l.006.002.005.001c1.838.754 2.916 1.737 3.443 2.772.527 1.035.54 2.157.1 3.338-.883 2.362-3.7 4.847-7.65 6.081l-.004.001-.003.002c-1.927.626-3.607 2.009-5.588 3.141-1.98 1.133-4.222 2.046-7.27 1.87-2.595-.151-4.146-1.032-5.548-2.159-1.402-1.127-2.624-2.543-4.414-3.594l-.005-.003-.005-.003c-2.882-1.63-4.456-3.514-4.95-5.147-.494-1.634-.03-3.028 1.4-4.1 1.608-1.205 2.725-2.025 3.469-2.57.739-.543 1.046-.747 1.282-.973l.003-.003v-.001c1.209-1.144 3.135-3.227 6.038-4.226.999-.344 2.114-.566 3.362-.571zm20.133 14.53c2.596 10.232 8.633 25.01 12.513 32.222 2.063 3.827 6.166 11.957 7.939 21.752 2.933.021 5.795.992 8.43 2.236 7.44 3.623 10.193 6.774 8.87 11.074a20.96 20.96 0 0 0-1.283-.003l-.117.003c1.078-3.409-1.309-5.922-7.67-8.8-6.596-2.902-11.853-2.614-12.741 3.272-.057.309-.103.623-.137.942-.493.17-.989.39-1.486.661-3.097 1.695-4.788 4.77-5.728 8.542-.94 3.77-1.21 8.326-1.469 13.448v.003c-.158 2.575-1.217 6.059-2.29 9.748-10.807 7.709-25.806 11.048-38.54 2.358-.863-1.365-1.853-2.718-2.872-4.052-.65-.852-1.319-1.699-1.984-2.534 1.308.001 2.419-.213 3.317-.62 1.117-.506 1.901-1.32 2.29-2.364.776-2.088-.004-5.034-2.49-8.398-2.485-3.364-5.488-8.366-11.673-12.16h-.001c-1.649-1.034-2.913-3.166-3.023-7.076.196-6.96.652-12.854 3.443-19.495 4.065-9.214 12.567-25.192 13.243-37.927.348.253 1.544 1.06 2.077 1.363.001.002.003.002.003.002 1.56.918 2.731 2.26 4.249 3.48 1.52 1.222 3.419 2.277 6.288 2.444 3.35.194 5.901-.843 7.993-2.039 2.088-1.194 3.756-2.515 5.336-3.031.003-.002.005-.002.008-.002 3.34-1.044 5.995-2.892 7.506-5.048zm21.361 58.074c3.262-.107 7.211 1.801 9.005 2.603 4.827 2.229 5.232 4.541 3.914 7.347-1.11 2.118-7.471 6.792-11.633 5.854-5.484-1.713-5.649-8.764-5.108-12.384.29-2.459 1.78-3.41 3.822-3.42zm-5.612 7.118c.273 4.428 2.463 8.943 6.337 9.92 4.24 1.117 10.351-2.52 12.932-5.487.527-.724.59-1.301 1.08-1.313 2.263-.055 5.216.275 6.938 1.76 1.723 1.486 2.858 4.325 3.473 6.999.614 2.674.69 5.531 3.386 8.538 2.696 3.006 4.15 6.446 4.053 8.142-.097 1.697-1.605 3.79-3.873 5.157-4.534 2.735-12.205 4.936-17.336 11.152-4.455 5.302-10.926 8.437-15.71 8.814-4.786.378-9.868-2.563-12.302-7.447l-.006-.011-.006-.011c-1.51-2.872-.63-7.204.642-11.985s3-10.343 3.244-14.333v-.012c.258-5.113.946-10.783 1.805-14.228.859-3.444 2.915-5.376 5.31-6.687.112-.06-.079 1.087.032 1.033zm-76.466-.276c2.712.41 5.58 3.362 7.858 6.452 2.278 3.09 4.5 7.26 6.467 11.433 1.969 4.174 5.916 7.842 9.048 11.942 3.132 4.1 5.104 8.368 4.74 12.643-.363 4.275-3.795 8.105-8.448 9.167-4.652 1.063-11.309.104-17.945-3.388-6.636-3.493-14.222-2.976-19.54-4.086-2.659-.556-5.65-1.994-6.447-3.545-.796-1.552-.965-4.51.307-8.129 1.272-3.619.753-6.494.347-9.146-.407-2.651-.907-5.114.13-7.08 1.036-1.965 3.34-3.919 5.45-4.676 2.11-.757 4.311-.95 6.223-2.914 1.912-1.965 3.234-4.43 4.84-6.145 2.153-2 4.218-2.937 6.97-2.528z" style="color:#000;font-style:normal;font-variant:normal;font-weight:400;font-stretch:normal;font-size:medium;line-height:normal;font-family:&quot;Bitstream Vera Sans&quot;;-inkscape-font-specification:&quot;Bitstream Vera Sans&quot;;text-indent:0;text-align:start;text-decoration:none;text-decoration-line:none;letter-spacing:normal;word-spacing:normal;text-transform:none;writing-mode:lr-tb;direction:ltr;baseline-shift:baseline;text-anchor:start;display:inline;overflow:visible;visibility:visible;fill:#202020;fill-opacity:1;stroke:none;stroke-width:62.0884;marker:none;enable-background:accumulate" transform="matrix(.83545 0 0 .83545 11.739 -4.802)"/><path d="M-245.311-29.046c-15.641 8.153-33.91 18.04-53.35 18.04-19.43 0-34.78-8.98-45.82-17.73-5.52-4.37-10-8.72-13.38-11.88-5.865-4.63-5.162-11.122-2.753-10.93 4.039.504 4.65 5.822 7.193 8.2 3.44 3.22 7.75 7.39 12.97 11.53 10.44 8.27 24.36 16.32 41.79 16.32 17.4 0 37.711-10.215 50.11-17.17 7.024-3.94 15.962-11.003 23.256-16.358 5.581-4.096 5.377-9.029 9.985-8.492 4.608.537 1.2 5.46-5.253 11.092-6.453 5.632-16.549 13.104-24.748 17.378z" style="fill:#202020;fill-opacity:1" transform="translate(158.756 73.28) scale(.16787)"/><path stroke="none" d="M-284.115-85.866c.647 2.076 3.993 1.732 5.927 2.728 1.696.873 3.06 2.788 4.968 2.844 1.82.052 4.653-.63 4.89-2.437.313-2.385-3.17-3.901-5.412-4.775-2.885-1.125-6.58-1.696-9.287-.191-.62.345-1.297 1.153-1.086 1.83zM-303.88-85.866c-.646 2.076-3.992 1.732-5.925 2.728-1.697.873-3.061 2.788-4.969 2.844-1.82.052-4.653-.63-4.89-2.437-.313-2.385 3.17-3.901 5.413-4.775 2.884-1.125 6.58-1.696 9.286-.191.62.345 1.297 1.153 1.086 1.83z" style="opacity:1;fill:#202020;fill-opacity:1;stroke:none" transform="translate(158.756 73.28) scale(.16787)"/><path stroke="none" d="M124.609 36.456a41.85 41.85 0 0 0-3.384.137c-7.428.599-12.361 2.974-15.707 6.318-3.347 3.343-5.136 7.717-6.033 12.432-1.793 9.43.091 19.98-.147 25.654v.014l-.002.014c-.562 7.97-2.239 14.451-7.746 22.28l-.025.035-.028.033c-6.316 7.511-15.205 19.697-19.375 32.223-1.917 5.76-2.834 11.582-2.095 17.05 2.048-1.049 3.863-1.465 5.464-1.415a7.678 7.678 0 0 1 2.773.603c2.251.952 3.9 2.74 7.003 6.767s5.386 9.12 7.272 12.369c1.886 3.25 3.293 4.804 4.65 6.512h1.107c1.197.002 2.166-.197 2.9-.53.91-.412 1.47-1.01 1.764-1.799.592-1.593.023-4.232-2.355-7.451-2.539-3.436-5.419-8.237-11.392-11.9l.041.01-.079-.069.029.052c-1.98-1.241-3.377-3.782-3.494-7.898v-.056c.197-6.99.664-13.056 3.522-19.856l.003-.008.003-.008c4.1-9.295 12.504-25.241 13.158-37.576l.063-1.193c-1.128-1.096-1.904-2.238-2.25-3.378-.59-1.952.078-3.935 1.76-5.195.811-.608 1.173-.87 1.75-1.297l-.092-.086c-.922-.864-1.63-1.947-2.218-3.284-.698-1.586-1.077-3.207-1.187-5.054l-.002-.03v-.032c-.096-1.826.09-3.461.6-5.114.516-1.666 1.253-2.972 2.311-4.021 1.053-1.045 2.283-1.67 3.661-1.742.107-.006.213-.009.318-.007h.003l.48.003.037.046c1.057.111 2.068.532 2.996 1.273 1.163.929 2.051 2.145 2.75 3.735.699 1.586 1.078 3.209 1.18 5.058l.002.028v.029c.046.758.04 1.482-.02 2.187.369-.074.764-.107 1.159-.145l-.003-.088 1.028-.004a12.47 12.47 0 0 1 2.136.188 16.202 16.202 0 0 1-.127-1.711v-.167c-.024-2.138.34-4.045 1.173-5.932.83-1.88 1.918-3.321 3.406-4.452 1.349-1.024 2.795-1.567 4.371-1.678.165-.012.324-.043.492-.044h.083c1.742 0 3.323.548 4.811 1.628 1.514 1.098 2.636 2.524 3.491 4.39l.001.002c.832 1.807 1.245 3.632 1.288 5.71l.016.058.001.137c.016 2.147-.365 4.044-1.187 5.925-.47 1.075-1.023 2.006-1.694 2.818l-.071.086c1.18.71 2.011 1.562 2.493 2.508.657 1.29.66 2.763.144 4.145-.132.318-.117.792.284 1.676 2.561 10.095 8.609 24.901 12.424 31.992v.001c2.026 3.76 6.008 11.673 7.88 21.291 2.848.177 5.565 1.099 8.034 2.265l.006.003.006.003c3.779 1.84 6.44 3.569 8.058 5.55 1.62 1.982 2.017 4.16 1.277 6.562l1.77.214c3.01-8.928 1.84-17.823-1.234-25.948-3.772-9.972-10.406-18.746-15.494-24.76l-.011-.012-.01-.013c-5.726-7.222-11.56-14.353-11.445-24.867.086-7.764.477-18.711-2.439-27.568-1.457-4.429-3.718-8.312-7.21-11.097-3.493-2.785-8.245-4.518-14.876-4.528zm3.08 30.42c-.447.002-.749.108-1.227.508-.502.42-.871.935-1.22 1.776-.347.838-.512 1.633-.545 2.655l-.003.066-.005.028V71.927c-.013.56.023 1.055.106 1.533l.209 1.205c.344.2.67.353 1.025.58l.002.002.003.001c.877.57 1.706.907 2.68 1.257l.44-.529c.28-.337.524-.745.754-1.304.348-.849.513-1.636.547-2.65l-.001.034c0-.268.015-.273.015-.134V71.901c.02-.966-.1-1.738-.378-2.571-.29-.872-.61-1.399-1.088-1.864-.47-.458-.76-.574-1.247-.589h-.016l-.013-.002h-.037zm-20.71 1.395c-.012 0-.032 0-.06.003-.243.02-.37.072-.664.428-.285.348-.494.796-.664 1.519-.168.71-.214 1.382-.14 2.212l.005.044v.045c0-.073.003-.05.006.026.081.8.231 1.415.506 2.06v.002h.001c.284.672.567 1.063.923 1.372.06.05.115.094.166.13l.407.286c.398-.383.859-.796 1.394-1.238l.2-1.415a6.642 6.642 0 0 0 .027-1.605.948.948 0 0 0 .015.1l-.015-.103a6.962 6.962 0 0 0-.517-2.178c-.294-.683-.571-1.074-.923-1.378-.321-.277-.458-.312-.658-.31h-.003zm34.58 115.79c-10.69 7.297-25.253 10.428-37.852 2.549 1.88 3.55 2.535 7.33 1.293 10.97 3.91-.056 8.606-1.795 16.065-2.21 5.389-.433 11.579 1.773 18.576 1.384-.776-4.31 1.075-8.886 1.917-12.693z" style="color:#000;font-style:normal;font-variant:normal;font-weight:400;font-stretch:normal;font-size:medium;line-height:normal;font-family:&quot;Bitstream Vera Sans&quot;;-inkscape-font-specification:&quot;Bitstream Vera Sans&quot;;text-indent:0;text-align:start;text-decoration:none;text-decoration-line:none;letter-spacing:normal;word-spacing:normal;text-transform:none;writing-mode:lr-tb;direction:ltr;baseline-shift:baseline;text-anchor:start;display:inline;overflow:visible;visibility:visible;fill:#fff;fill-opacity:1;stroke:none;stroke-width:62.0884;marker:none;enable-background:accumulate" transform="matrix(.83545 0 0 .83545 11.739 -4.802)"/><text xml:space="preserve" x="34.859" y="199.424" style="font-style:normal;font-variant:normal;font-weight:400;font-stretch:normal;font-size:13.9478px;font-family:&quot;FiraCode Nerd Font Mono&quot;;-inkscape-font-specification:&quot;FiraCode Nerd Font Mono&quot;;text-align:start;writing-mode:lr-tb;direction:ltr;text-anchor:start;fill:#000;fill-opacity:1;stroke:none;stroke-width:2.32464"><tspan x="34.859" y="199.424" style="stroke-width:2.32464">OS: ___________________________</tspan><tspan x="34.859" y="216.859" style="stroke-width:2.32464">Hostname: _____________________</tspan><tspan x="34.859" y="234.294" style="stroke-width:2.32464">Shell: ________________________</tspan><tspan x="34.859" y="251.728" style="stroke-width:2.32464">Desktop Environment: __________</tspan><tspan x="34.859" y="269.163" style="stroke-width:2.32464">CPU: __________________________</tspan><tspan x="34.859" y="286.598" style="stroke-width:2.32464">GPU: __________________________</tspan></text></svg>